<svg width="192" height="50" viewBox="0 0 192 69" fill="none" xmlns="http://www.w3.org/2000/svg">
<rect width="192" height="69" fill="#F8F9FA"/>
<path d="M71 25.625C71 25.7908 71.0658 25.9497 71.1831 26.0669C71.3003 26.1842 71.4592 26.25 71.625 26.25C71.7908 26.25 71.9497 26.1842 72.0669 26.0669C72.1842 25.9497 72.25 25.7908 72.25 25.625V18.75C72.25 18.6398 72.2208 18.5316 72.1655 18.4364C72.1102 18.3411 72.0307 18.2621 71.935 18.2075L67.56 15.7075C67.4164 15.6299 67.2482 15.6115 67.0913 15.6563C66.9343 15.7011 66.8012 15.8056 66.7202 15.9473C66.6392 16.0889 66.6169 16.2567 66.658 16.4146C66.699 16.5726 66.8003 16.7082 66.94 16.7925L71 19.1125V25.625Z" fill="black"/>
<path d="M71 10C68.3478 10 65.8043 11.0536 63.9289 12.9289C62.0536 14.8043 61 17.3478 61 20C61 22.6522 62.0536 25.1957 63.9289 27.0711C65.8043 28.9464 68.3478 30 71 30C73.6522 30 76.1957 28.9464 78.0711 27.0711C79.9464 25.1957 81 22.6522 81 20C81 17.3478 79.9464 14.8043 78.0711 12.9289C76.1957 11.0536 73.6522 10 71 10ZM62.25 20C62.25 17.6794 63.1719 15.4538 64.8128 13.8128C66.4538 12.1719 68.6794 11.25 71 11.25C73.3206 11.25 75.5462 12.1719 77.1872 13.8128C78.8281 15.4538 79.75 17.6794 79.75 20C79.75 22.3206 78.8281 24.5462 77.1872 26.1872C75.5462 27.8281 73.3206 28.75 71 28.75C68.6794 28.75 66.4538 27.8281 64.8128 26.1872C63.1719 24.5462 62.25 22.3206 62.25 20Z" fill="black"/>
<g clip-path="url(#clip0_1_28)">
<path d="M101.864 14.3386C101.864 14.1825 101.805 14.0328 101.701 13.9224C101.596 13.812 101.455 13.75 101.307 13.75C101.159 13.75 101.018 13.812 100.913 13.9224C100.809 14.0328 100.75 14.1825 100.75 14.3386V20.8137C100.75 20.9175 100.776 21.0194 100.825 21.1091C100.875 21.1988 100.945 21.2732 101.031 21.3246L104.928 23.6792C105.056 23.7523 105.206 23.7696 105.346 23.7274C105.486 23.6852 105.604 23.5869 105.677 23.4534C105.749 23.32 105.769 23.162 105.732 23.0132C105.695 22.8644 105.605 22.7367 105.481 22.6573L101.864 20.4723V14.3386Z" fill="black"/>
<path d="M102 30C104.652 30 107.196 28.9464 109.071 27.0711C110.946 25.1957 112 22.6522 112 20C112 17.3478 110.946 14.8043 109.071 12.9289C107.196 11.0536 104.652 10 102 10C99.3478 10 96.8043 11.0536 94.9289 12.9289C93.0536 14.8043 92 17.3478 92 20C92 22.6522 93.0536 25.1957 94.9289 27.0711C96.8043 28.9464 99.3478 30 102 30ZM110.75 20C110.75 22.3206 109.828 24.5462 108.187 26.1872C106.546 27.8281 104.321 28.75 102 28.75C99.6794 28.75 97.4538 27.8281 95.8128 26.1872C94.1719 24.5462 93.25 22.3206 93.25 20C93.25 17.6794 94.1719 15.4538 95.8128 13.8128C97.4538 12.1719 99.6794 11.25 102 11.25C104.321 11.25 106.546 12.1719 108.187 13.8128C109.828 15.4538 110.75 17.6794 110.75 20Z" fill="black"/>
</g>
<g clip-path="url(#clip1_1_28)">
<path fill-rule="evenodd" clip-rule="evenodd" d="M78.25 44.375C78.25 44.5407 78.3159 44.6997 78.4331 44.8169C78.5503 44.9341 78.7092 45 78.875 45H93.6163L89.6825 48.9325C89.5651 49.0498 89.4992 49.209 89.4992 49.375C89.4992 49.5409 89.5651 49.7001 89.6825 49.8175C89.7999 49.9348 89.959 50.0008 90.125 50.0008C90.291 50.0008 90.4501 49.9348 90.5675 49.8175L95.5675 44.8175C95.6257 44.7594 95.6719 44.6904 95.7034 44.6145C95.7349 44.5386 95.7511 44.4572 95.7511 44.375C95.7511 44.2928 95.7349 44.2114 95.7034 44.1354C95.6719 44.0595 95.6257 43.9905 95.5675 43.9325L90.5675 38.9325C90.4501 38.8151 90.291 38.7492 90.125 38.7492C89.959 38.7492 89.7999 38.8151 89.6825 38.9325C89.5651 39.0498 89.4992 39.209 89.4992 39.375C89.4992 39.5409 89.5651 39.7001 89.6825 39.8175L93.6163 43.75H78.875C78.7092 43.75 78.5503 43.8158 78.4331 43.933C78.3159 44.0502 78.25 44.2092 78.25 44.375ZM95.75 35.625C95.75 35.7907 95.6842 35.9497 95.5669 36.0669C95.4497 36.1841 95.2908 36.25 95.125 36.25H80.3838L84.3175 40.1825C84.3756 40.2406 84.4217 40.3096 84.4532 40.3855C84.4846 40.4614 84.5008 40.5428 84.5008 40.625C84.5008 40.7071 84.4846 40.7885 84.4532 40.8644C84.4217 40.9404 84.3756 41.0094 84.3175 41.0675C84.2594 41.1256 84.1904 41.1717 84.1145 41.2031C84.0386 41.2346 83.9572 41.2508 83.875 41.2508C83.7928 41.2508 83.7114 41.2346 83.6355 41.2031C83.5596 41.1717 83.4906 41.1256 83.4325 41.0675L78.4325 36.0675C78.3743 36.0094 78.3281 35.9404 78.2966 35.8645C78.2651 35.7886 78.2489 35.7072 78.2489 35.625C78.2489 35.5428 78.2651 35.4614 78.2966 35.3854C78.3281 35.3095 78.3743 35.2405 78.4325 35.1825L83.4325 30.1825C83.5499 30.0651 83.709 29.9992 83.875 29.9992C84.041 29.9992 84.2001 30.0651 84.3175 30.1825C84.4349 30.2998 84.5008 30.459 84.5008 30.625C84.5008 30.7909 84.4349 30.9501 84.3175 31.0675L80.3838 35H95.125C95.2908 35 95.4497 35.0658 95.5669 35.183C95.6842 35.3002 95.75 35.4592 95.75 35.625Z" fill="black"/>
</g>
<path d="M7.78125 56.2273V58.7273H7V56.2273H7.78125ZM9.59943 56.2273V58.7273H8.81818V56.2273H9.59943Z" fill="black"/>
<path d="M17.0559 58.5H16.1752C16.1232 58.2467 16.032 58.0241 15.9018 57.8324C15.774 57.6406 15.6177 57.4796 15.4331 57.3494C15.2508 57.2169 15.0484 57.1174 14.8258 57.0511C14.6033 56.9848 14.3713 56.9517 14.1298 56.9517C13.6895 56.9517 13.2905 57.063 12.9331 57.2855C12.5779 57.508 12.295 57.8359 12.0843 58.2692C11.876 58.7024 11.7718 59.2339 11.7718 59.8636C11.7718 60.4934 11.876 61.0249 12.0843 61.4581C12.295 61.8913 12.5779 62.2192 12.9331 62.4418C13.2905 62.6643 13.6895 62.7756 14.1298 62.7756C14.3713 62.7756 14.6033 62.7424 14.8258 62.6761C15.0484 62.6098 15.2508 62.5116 15.4331 62.3814C15.6177 62.2488 15.774 62.0866 15.9018 61.8949C16.032 61.7008 16.1232 61.4782 16.1752 61.2273H17.0559C16.9896 61.599 16.8689 61.9316 16.6937 62.2251C16.5185 62.5187 16.3007 62.7685 16.0403 62.9744C15.7799 63.178 15.4875 63.3331 15.1632 63.4396C14.8412 63.5462 14.4967 63.5994 14.1298 63.5994C13.5095 63.5994 12.9579 63.4479 12.475 63.1449C11.992 62.8419 11.612 62.411 11.335 61.8523C11.0581 61.2936 10.9196 60.6307 10.9196 59.8636C10.9196 59.0966 11.0581 58.4337 11.335 57.875C11.612 57.3163 11.992 56.8854 12.475 56.5824C12.9579 56.2794 13.5095 56.1278 14.1298 56.1278C14.4967 56.1278 14.8412 56.1811 15.1632 56.2876C15.4875 56.3942 15.7799 56.5504 16.0403 56.7564C16.3007 56.96 16.5185 57.2086 16.6937 57.5021C16.8689 57.7933 16.9896 58.1259 17.0559 58.5Z" fill="black"/>
<path d="M20.5813 63.6136C20.0889 63.6136 19.6568 63.4964 19.2852 63.2621C18.9158 63.0277 18.627 62.6998 18.4187 62.2784C18.2127 61.857 18.1097 61.3646 18.1097 60.8011C18.1097 60.233 18.2127 59.737 18.4187 59.3132C18.627 58.8894 18.9158 58.5604 19.2852 58.326C19.6568 58.0916 20.0889 57.9744 20.5813 57.9744C21.0737 57.9744 21.5046 58.0916 21.8739 58.326C22.2456 58.5604 22.5344 58.8894 22.7404 59.3132C22.9487 59.737 23.0529 60.233 23.0529 60.8011C23.0529 61.3646 22.9487 61.857 22.7404 62.2784C22.5344 62.6998 22.2456 63.0277 21.8739 63.2621C21.5046 63.4964 21.0737 63.6136 20.5813 63.6136ZM20.5813 62.8608C20.9554 62.8608 21.2631 62.7649 21.5046 62.5732C21.7461 62.3814 21.9248 62.1293 22.0408 61.8168C22.1568 61.5043 22.2148 61.1657 22.2148 60.8011C22.2148 60.4366 22.1568 60.0968 22.0408 59.782C21.9248 59.4671 21.7461 59.2126 21.5046 59.0185C21.2631 58.8243 20.9554 58.7273 20.5813 58.7273C20.2073 58.7273 19.8995 58.8243 19.658 59.0185C19.4165 59.2126 19.2378 59.4671 19.1218 59.782C19.0058 60.0968 18.9478 60.4366 18.9478 60.8011C18.9478 61.1657 19.0058 61.5043 19.1218 61.8168C19.2378 62.1293 19.4165 62.3814 19.658 62.5732C19.8995 62.7649 20.2073 62.8608 20.5813 62.8608Z" fill="black"/>
<path d="M25.1703 60.2188V63.5H24.3322V58.0455H25.1419V58.8977H25.2129C25.3407 58.6207 25.5349 58.3982 25.7953 58.2301C26.0557 58.0597 26.3919 57.9744 26.8038 57.9744C27.1731 57.9744 27.4963 58.0502 27.7733 58.2017C28.0502 58.3509 28.2657 58.5781 28.4196 58.8835C28.5734 59.1866 28.6504 59.5701 28.6504 60.0341V63.5H27.8123V60.0909C27.8123 59.6624 27.7011 59.3286 27.4785 59.0895C27.256 58.848 26.9506 58.7273 26.5623 58.7273C26.2948 58.7273 26.0557 58.7853 25.845 58.9013C25.6367 59.0173 25.4721 59.1866 25.3514 59.4091C25.2306 59.6316 25.1703 59.9015 25.1703 60.2188Z" fill="black"/>
<path d="M31.0199 60.2188V63.5H30.1818V58.0455H30.9915V58.8977H31.0625C31.1903 58.6207 31.3845 58.3982 31.6449 58.2301C31.9053 58.0597 32.2415 57.9744 32.6534 57.9744C33.0227 57.9744 33.3459 58.0502 33.6229 58.2017C33.8999 58.3509 34.1153 58.5781 34.2692 58.8835C34.4231 59.1866 34.5 59.5701 34.5 60.0341V63.5H33.6619V60.0909C33.6619 59.6624 33.5507 59.3286 33.3281 59.0895C33.1056 58.848 32.8002 58.7273 32.4119 58.7273C32.1444 58.7273 31.9053 58.7853 31.6946 58.9013C31.4863 59.0173 31.3217 59.1866 31.201 59.4091C31.0803 59.6316 31.0199 59.9015 31.0199 60.2188Z" fill="black"/>
<path d="M38.3184 63.6136C37.7928 63.6136 37.3394 63.4976 36.9583 63.2656C36.5795 63.0312 36.2871 62.7045 36.0811 62.2855C35.8775 61.8641 35.7757 61.3741 35.7757 60.8153C35.7757 60.2566 35.8775 59.7642 36.0811 59.3381C36.2871 58.9096 36.5736 58.5758 36.9405 58.3366C37.3098 58.0952 37.7407 57.9744 38.2331 57.9744C38.5172 57.9744 38.7978 58.0218 39.0747 58.1165C39.3517 58.2112 39.6039 58.3651 39.8311 58.5781C40.0584 58.7888 40.2395 59.0682 40.3745 59.4162C40.5094 59.7642 40.5769 60.1927 40.5769 60.7017V61.0568H36.3723V60.3324H39.7246C39.7246 60.0246 39.6631 59.75 39.54 59.5085C39.4192 59.267 39.2464 59.0765 39.0215 58.9368C38.7989 58.7971 38.5362 58.7273 38.2331 58.7273C37.8993 58.7273 37.6105 58.8101 37.3667 58.9759C37.1252 59.1392 36.9393 59.3523 36.8091 59.6151C36.6789 59.8778 36.6138 60.1596 36.6138 60.4602V60.9432C36.6138 61.3551 36.6848 61.7043 36.8269 61.9908C36.9713 62.2749 37.1713 62.4915 37.427 62.6406C37.6827 62.7874 37.9798 62.8608 38.3184 62.8608C38.5385 62.8608 38.7374 62.83 38.915 62.7685C39.0949 62.7045 39.2499 62.6098 39.3801 62.4844C39.5104 62.3565 39.611 62.1979 39.682 62.0085L40.4917 62.2358C40.4064 62.5104 40.2632 62.7519 40.062 62.9602C39.8607 63.1662 39.6122 63.3272 39.3162 63.4432C39.0203 63.5568 38.6877 63.6136 38.3184 63.6136Z" fill="black"/>
<path d="M44.0676 63.6136C43.5563 63.6136 43.1159 63.4929 42.7466 63.2514C42.3773 63.0099 42.0932 62.6773 41.8944 62.2536C41.6955 61.8298 41.5961 61.3456 41.5961 60.8011C41.5961 60.2472 41.6979 59.7583 41.9015 59.3345C42.1074 58.9084 42.3939 58.5758 42.7608 58.3366C43.1301 58.0952 43.561 57.9744 44.0534 57.9744C44.437 57.9744 44.7826 58.0455 45.0904 58.1875C45.3981 58.3295 45.6503 58.5284 45.8468 58.7841C46.0433 59.0398 46.1652 59.3381 46.2125 59.679H45.3745C45.3105 59.4304 45.1685 59.2102 44.9483 59.0185C44.7305 58.8243 44.437 58.7273 44.0676 58.7273C43.7409 58.7273 43.4545 58.8125 43.2083 58.983C42.9644 59.151 42.7739 59.389 42.6365 59.6967C42.5016 60.0021 42.4341 60.3608 42.4341 60.7727C42.4341 61.1941 42.5004 61.5611 42.633 61.8736C42.7679 62.1861 42.9573 62.4287 43.2012 62.6016C43.4474 62.7744 43.7362 62.8608 44.0676 62.8608C44.2855 62.8608 44.4831 62.8229 44.6607 62.7472C44.8382 62.6714 44.9886 62.5625 45.1117 62.4205C45.2348 62.2784 45.3224 62.108 45.3745 61.9091H46.2125C46.1652 62.2311 46.048 62.5211 45.861 62.7791C45.6763 63.0348 45.4313 63.2384 45.1259 63.3899C44.8229 63.5391 44.4701 63.6136 44.0676 63.6136Z" fill="black"/>
<path d="M49.8098 58.0455V58.7557H46.9831V58.0455H49.8098ZM47.807 56.7386H48.6451V61.9375C48.6451 62.1742 48.6794 62.3518 48.748 62.4702C48.8191 62.5862 48.909 62.6643 49.0179 62.7045C49.1292 62.7424 49.2464 62.7614 49.3695 62.7614C49.4618 62.7614 49.5376 62.7566 49.5968 62.7472C49.656 62.7353 49.7033 62.7259 49.7388 62.7188L49.9093 63.4716C49.8524 63.4929 49.7731 63.5142 49.6713 63.5355C49.5695 63.5592 49.4405 63.571 49.2843 63.571C49.0475 63.571 48.8155 63.5201 48.5882 63.4183C48.3633 63.3165 48.1763 63.1615 48.0272 62.9531C47.8804 62.7448 47.807 62.482 47.807 62.1648V56.7386Z" fill="black"/>
<path d="M55.4881 63.6278C55.1425 63.6278 54.8288 63.5627 54.5471 63.4325C54.2653 63.3 54.0416 63.1094 53.8759 62.8608C53.7102 62.6098 53.6273 62.3068 53.6273 61.9517C53.6273 61.6392 53.6889 61.3859 53.812 61.1918C53.9351 60.9953 54.0996 60.8414 54.3056 60.7301C54.5115 60.6188 54.7388 60.536 54.9874 60.4815C55.2383 60.4247 55.4905 60.3797 55.7438 60.3466C56.0752 60.304 56.3439 60.272 56.5499 60.2507C56.7582 60.227 56.9097 60.188 57.0044 60.1335C57.1015 60.0791 57.15 59.9844 57.15 59.8494V59.821C57.15 59.4706 57.0542 59.1984 56.8624 59.0043C56.673 58.8101 56.3854 58.7131 55.9995 58.7131C55.5994 58.7131 55.2857 58.8007 55.0584 58.9759C54.8311 59.151 54.6713 59.3381 54.579 59.5369L53.7836 59.2528C53.9256 58.9214 54.115 58.6634 54.3517 58.4787C54.5908 58.2917 54.8513 58.1615 55.133 58.0881C55.4171 58.0123 55.6964 57.9744 55.9711 57.9744C56.1462 57.9744 56.3475 57.9957 56.5747 58.0384C56.8044 58.0786 57.0257 58.1626 57.2388 58.2905C57.4542 58.4183 57.633 58.6113 57.775 58.8693C57.9171 59.1274 57.9881 59.473 57.9881 59.9062V63.5H57.15V62.7614H57.1074C57.0506 62.8797 56.9559 63.0064 56.8233 63.1413C56.6908 63.2763 56.5144 63.3911 56.2942 63.4858C56.074 63.5805 55.8053 63.6278 55.4881 63.6278ZM55.6159 62.875C55.9474 62.875 56.2267 62.8099 56.454 62.6797C56.6837 62.5495 56.8565 62.3814 56.9725 62.1754C57.0908 61.9695 57.15 61.7528 57.15 61.5256V60.7585C57.1145 60.8011 57.0364 60.8402 56.9157 60.8757C56.7973 60.9089 56.66 60.9384 56.5037 60.9645C56.3498 60.9882 56.1995 61.0095 56.0527 61.0284C55.9083 61.045 55.7911 61.0592 55.7012 61.071C55.4834 61.0994 55.2798 61.1456 55.0904 61.2095C54.9033 61.2711 54.7518 61.3646 54.6358 61.4901C54.5222 61.6132 54.4654 61.7812 54.4654 61.9943C54.4654 62.2855 54.5731 62.5057 54.7885 62.6548C55.0063 62.8016 55.2821 62.875 55.6159 62.875Z" fill="black"/>
<path d="M61.7337 63.6136C61.2223 63.6136 60.782 63.4929 60.4126 63.2514C60.0433 63.0099 59.7592 62.6773 59.5604 62.2536C59.3615 61.8298 59.2621 61.3456 59.2621 60.8011C59.2621 60.2472 59.3639 59.7583 59.5675 59.3345C59.7734 58.9084 60.0599 58.5758 60.4268 58.3366C60.7962 58.0952 61.227 57.9744 61.7195 57.9744C62.103 57.9744 62.4486 58.0455 62.7564 58.1875C63.0642 58.3295 63.3163 58.5284 63.5128 58.7841C63.7093 59.0398 63.8312 59.3381 63.8786 59.679H63.0405C62.9766 59.4304 62.8345 59.2102 62.6143 59.0185C62.3965 58.8243 62.103 58.7273 61.7337 58.7273C61.407 58.7273 61.1205 58.8125 60.8743 58.983C60.6304 59.151 60.4399 59.389 60.3026 59.6967C60.1676 60.0021 60.1001 60.3608 60.1001 60.7727C60.1001 61.1941 60.1664 61.5611 60.299 61.8736C60.4339 62.1861 60.6233 62.4287 60.8672 62.6016C61.1134 62.7744 61.4022 62.8608 61.7337 62.8608C61.9515 62.8608 62.1491 62.8229 62.3267 62.7472C62.5043 62.6714 62.6546 62.5625 62.7777 62.4205C62.9008 62.2784 62.9884 62.108 63.0405 61.9091H63.8786C63.8312 62.2311 63.714 62.5211 63.527 62.7791C63.3423 63.0348 63.0973 63.2384 62.7919 63.3899C62.4889 63.5391 62.1361 63.6136 61.7337 63.6136Z" fill="black"/>
<path d="M65.1037 63.5V58.0455H65.9134V58.8693H65.9702C66.0696 58.5994 66.2495 58.3804 66.5099 58.2124C66.7704 58.0443 67.0639 57.9602 67.3906 57.9602C67.4522 57.9602 67.5291 57.9614 67.6214 57.9638C67.7138 57.9661 67.7836 57.9697 67.831 57.9744V58.8267C67.8026 58.8196 67.7375 58.8089 67.6357 58.7947C67.5362 58.7782 67.4309 58.7699 67.3196 58.7699C67.0545 58.7699 66.8177 58.8255 66.6094 58.9368C66.4034 59.0457 66.2401 59.1972 66.1193 59.3913C66.0009 59.5831 65.9418 59.8021 65.9418 60.0483V63.5H65.1037Z" fill="black"/>
<path d="M70.8743 63.6136C70.3819 63.6136 69.9498 63.4964 69.5781 63.2621C69.2088 63.0277 68.92 62.6998 68.7116 62.2784C68.5057 61.857 68.4027 61.3646 68.4027 60.8011C68.4027 60.233 68.5057 59.737 68.7116 59.3132C68.92 58.8894 69.2088 58.5604 69.5781 58.326C69.9498 58.0916 70.3819 57.9744 70.8743 57.9744C71.3667 57.9744 71.7976 58.0916 72.1669 58.326C72.5386 58.5604 72.8274 58.8894 73.0334 59.3132C73.2417 59.737 73.3459 60.233 73.3459 60.8011C73.3459 61.3646 73.2417 61.857 73.0334 62.2784C72.8274 62.6998 72.5386 63.0277 72.1669 63.2621C71.7976 63.4964 71.3667 63.6136 70.8743 63.6136ZM70.8743 62.8608C71.2483 62.8608 71.5561 62.7649 71.7976 62.5732C72.0391 62.3814 72.2178 62.1293 72.3338 61.8168C72.4498 61.5043 72.5078 61.1657 72.5078 60.8011C72.5078 60.4366 72.4498 60.0968 72.3338 59.782C72.2178 59.4671 72.0391 59.2126 71.7976 59.0185C71.5561 58.8243 71.2483 58.7273 70.8743 58.7273C70.5002 58.7273 70.1925 58.8243 69.951 59.0185C69.7095 59.2126 69.5308 59.4671 69.4148 59.782C69.2988 60.0968 69.2408 60.4366 69.2408 60.8011C69.2408 61.1657 69.2988 61.5043 69.4148 61.8168C69.5308 62.1293 69.7095 62.3814 69.951 62.5732C70.1925 62.7649 70.5002 62.8608 70.8743 62.8608Z" fill="black"/>
<path d="M78.4888 59.267L77.736 59.4801C77.6886 59.3546 77.6188 59.2327 77.5265 59.1143C77.4365 58.9936 77.3134 58.8942 77.1571 58.8161C77.0009 58.7379 76.8008 58.6989 76.557 58.6989C76.2232 58.6989 75.945 58.7758 75.7225 58.9297C75.5023 59.0812 75.3922 59.2741 75.3922 59.5085C75.3922 59.7169 75.468 59.8814 75.6195 60.0021C75.771 60.1229 76.0077 60.2235 76.3297 60.304L77.1394 60.5028C77.6271 60.6212 77.9905 60.8023 78.2296 61.0462C78.4687 61.2876 78.5882 61.599 78.5882 61.9801C78.5882 62.2926 78.4983 62.572 78.3184 62.8182C78.1408 63.0644 77.8922 63.2585 77.5726 63.4006C77.253 63.5426 76.8813 63.6136 76.4576 63.6136C75.9012 63.6136 75.4408 63.4929 75.0762 63.2514C74.7116 63.0099 74.4808 62.6572 74.3837 62.1932L75.1792 61.9943C75.2549 62.2879 75.3981 62.508 75.6088 62.6548C75.8219 62.8016 76.1001 62.875 76.4434 62.875C76.834 62.875 77.1441 62.7921 77.3738 62.6264C77.6058 62.4583 77.7218 62.2571 77.7218 62.0227C77.7218 61.8333 77.6555 61.6747 77.5229 61.5469C77.3903 61.4167 77.1867 61.3196 76.9121 61.2557L76.003 61.0426C75.5035 60.9242 75.1365 60.7408 74.9022 60.4922C74.6702 60.2412 74.5542 59.9276 74.5542 59.5511C74.5542 59.2434 74.6406 58.9711 74.8134 58.7344C74.9886 58.4976 75.2265 58.3118 75.5272 58.1768C75.8302 58.0419 76.1735 57.9744 76.557 57.9744C77.0968 57.9744 77.5205 58.0928 77.8283 58.3295C78.1384 58.5663 78.3586 58.8788 78.4888 59.267Z" fill="black"/>
<path d="M83.7134 59.267L82.9606 59.4801C82.9132 59.3546 82.8434 59.2327 82.7511 59.1143C82.6611 58.9936 82.538 58.8942 82.3817 58.8161C82.2255 58.7379 82.0254 58.6989 81.7816 58.6989C81.4478 58.6989 81.1696 58.7758 80.9471 58.9297C80.7269 59.0812 80.6168 59.2741 80.6168 59.5085C80.6168 59.7169 80.6926 59.8814 80.8441 60.0021C80.9956 60.1229 81.2324 60.2235 81.5543 60.304L82.364 60.5028C82.8517 60.6212 83.2151 60.8023 83.4542 61.0462C83.6933 61.2876 83.8129 61.599 83.8129 61.9801C83.8129 62.2926 83.7229 62.572 83.543 62.8182C83.3654 63.0644 83.1168 63.2585 82.7972 63.4006C82.4776 63.5426 82.1059 63.6136 81.6822 63.6136C81.1258 63.6136 80.6654 63.4929 80.3008 63.2514C79.9362 63.0099 79.7054 62.6572 79.6083 62.1932L80.4038 61.9943C80.4795 62.2879 80.6227 62.508 80.8335 62.6548C81.0465 62.8016 81.3247 62.875 81.668 62.875C82.0586 62.875 82.3687 62.7921 82.5984 62.6264C82.8304 62.4583 82.9464 62.2571 82.9464 62.0227C82.9464 61.8333 82.8801 61.6747 82.7475 61.5469C82.6149 61.4167 82.4113 61.3196 82.1367 61.2557L81.2276 61.0426C80.7281 60.9242 80.3612 60.7408 80.1268 60.4922C79.8948 60.2412 79.7788 59.9276 79.7788 59.5511C79.7788 59.2434 79.8652 58.9711 80.038 58.7344C80.2132 58.4976 80.4511 58.3118 80.7518 58.1768C81.0548 58.0419 81.3981 57.9744 81.7816 57.9744C82.3214 57.9744 82.7451 58.0928 83.0529 58.3295C83.363 58.5663 83.5832 58.8788 83.7134 59.267Z" fill="black"/>
<path d="M90.2591 58.0455V58.7557H87.4324V58.0455H90.2591ZM88.2562 56.7386H89.0943V61.9375C89.0943 62.1742 89.1286 62.3518 89.1973 62.4702C89.2683 62.5862 89.3582 62.6643 89.4671 62.7045C89.5784 62.7424 89.6956 62.7614 89.8187 62.7614C89.911 62.7614 89.9868 62.7566 90.046 62.7472C90.1052 62.7353 90.1525 62.7259 90.188 62.7188L90.3585 63.4716C90.3017 63.4929 90.2224 63.5142 90.1206 63.5355C90.0188 63.5592 89.8897 63.571 89.7335 63.571C89.4967 63.571 89.2647 63.5201 89.0375 63.4183C88.8126 63.3165 88.6255 63.1615 88.4764 62.9531C88.3296 62.7448 88.2562 62.482 88.2562 62.1648V56.7386Z" fill="black"/>
<path d="M91.5197 63.5V58.0455H92.3578V63.5H91.5197ZM91.9458 57.1364C91.7825 57.1364 91.6416 57.0807 91.5233 56.9695C91.4073 56.8582 91.3493 56.7244 91.3493 56.5682C91.3493 56.4119 91.4073 56.2782 91.5233 56.1669C91.6416 56.0556 91.7825 56 91.9458 56C92.1092 56 92.2489 56.0556 92.3649 56.1669C92.4832 56.2782 92.5424 56.4119 92.5424 56.5682C92.5424 56.7244 92.4832 56.8582 92.3649 56.9695C92.2489 57.0807 92.1092 57.1364 91.9458 57.1364Z" fill="black"/>
<path d="M93.8928 63.5V58.0455H94.7024V58.8977H94.7734C94.8871 58.6065 95.0705 58.3804 95.3239 58.2195C95.5772 58.0561 95.8814 57.9744 96.2365 57.9744C96.5964 57.9744 96.8958 58.0561 97.1349 58.2195C97.3764 58.3804 97.5646 58.6065 97.6996 58.8977H97.7564C97.8961 58.616 98.1056 58.3923 98.3849 58.2266C98.6643 58.0585 98.9993 57.9744 99.3899 57.9744C99.8776 57.9744 100.277 58.1271 100.587 58.4325C100.897 58.7356 101.052 59.2079 101.052 59.8494V63.5H100.214V59.8494C100.214 59.447 100.104 59.1593 99.8835 58.9865C99.6634 58.8137 99.4041 58.7273 99.1058 58.7273C98.7223 58.7273 98.4252 58.8433 98.2145 59.0753C98.0038 59.3049 97.8984 59.5961 97.8984 59.9489V63.5H97.0462V59.7642C97.0462 59.4541 96.9455 59.2043 96.7443 59.0149C96.5431 58.8232 96.2839 58.7273 95.9666 58.7273C95.7488 58.7273 95.5452 58.7853 95.3558 58.9013C95.1688 59.0173 95.0173 59.1783 94.9013 59.3842C94.7876 59.5878 94.7308 59.8234 94.7308 60.0909V63.5H93.8928Z" fill="black"/>
<path d="M104.871 63.6136C104.346 63.6136 103.892 63.4976 103.511 63.2656C103.132 63.0312 102.84 62.7045 102.634 62.2855C102.43 61.8641 102.328 61.3741 102.328 60.8153C102.328 60.2566 102.43 59.7642 102.634 59.3381C102.84 58.9096 103.126 58.5758 103.493 58.3366C103.863 58.0952 104.293 57.9744 104.786 57.9744C105.07 57.9744 105.35 58.0218 105.627 58.1165C105.904 58.2112 106.157 58.3651 106.384 58.5781C106.611 58.7888 106.792 59.0682 106.927 59.4162C107.062 59.7642 107.13 60.1927 107.13 60.7017V61.0568H102.925V60.3324H106.277C106.277 60.0246 106.216 59.75 106.093 59.5085C105.972 59.267 105.799 59.0765 105.574 58.9368C105.352 58.7971 105.089 58.7273 104.786 58.7273C104.452 58.7273 104.163 58.8101 103.919 58.9759C103.678 59.1392 103.492 59.3523 103.362 59.6151C103.232 59.8778 103.167 60.1596 103.167 60.4602V60.9432C103.167 61.3551 103.238 61.7043 103.38 61.9908C103.524 62.2749 103.724 62.4915 103.98 62.6406C104.235 62.7874 104.533 62.8608 104.871 62.8608C105.091 62.8608 105.29 62.83 105.468 62.7685C105.648 62.7045 105.803 62.6098 105.933 62.4844C106.063 62.3565 106.164 62.1979 106.235 62.0085L107.044 62.2358C106.959 62.5104 106.816 62.7519 106.615 62.9602C106.413 63.1662 106.165 63.3272 105.869 63.4432C105.573 63.5568 105.24 63.6136 104.871 63.6136Z" fill="black"/>
<path d="M111.061 63.5V62.8608L114.157 58.8835V58.8267H111.16V58.0455H115.237V58.7131L112.225 62.6619V62.7188H115.336V63.5H111.061Z" fill="black"/>
<path d="M118.687 63.6136C118.194 63.6136 117.762 63.4964 117.391 63.2621C117.021 63.0277 116.732 62.6998 116.524 62.2784C116.318 61.857 116.215 61.3646 116.215 60.8011C116.215 60.233 116.318 59.737 116.524 59.3132C116.732 58.8894 117.021 58.5604 117.391 58.326C117.762 58.0916 118.194 57.9744 118.687 57.9744C119.179 57.9744 119.61 58.0916 119.979 58.326C120.351 58.5604 120.64 58.8894 120.846 59.3132C121.054 59.737 121.158 60.233 121.158 60.8011C121.158 61.3646 121.054 61.857 120.846 62.2784C120.64 62.6998 120.351 63.0277 119.979 63.2621C119.61 63.4964 119.179 63.6136 118.687 63.6136ZM118.687 62.8608C119.061 62.8608 119.369 62.7649 119.61 62.5732C119.852 62.3814 120.03 62.1293 120.146 61.8168C120.262 61.5043 120.32 61.1657 120.32 60.8011C120.32 60.4366 120.262 60.0968 120.146 59.782C120.03 59.4671 119.852 59.2126 119.61 59.0185C119.369 58.8243 119.061 58.7273 118.687 58.7273C118.313 58.7273 118.005 58.8243 117.763 59.0185C117.522 59.2126 117.343 59.4671 117.227 59.782C117.111 60.0968 117.053 60.4366 117.053 60.8011C117.053 61.1657 117.111 61.5043 117.227 61.8168C117.343 62.1293 117.522 62.3814 117.763 62.5732C118.005 62.7649 118.313 62.8608 118.687 62.8608Z" fill="black"/>
<path d="M123.276 60.2188V63.5H122.438V58.0455H123.247V58.8977H123.318C123.446 58.6207 123.64 58.3982 123.901 58.2301C124.161 58.0597 124.497 57.9744 124.909 57.9744C125.279 57.9744 125.602 58.0502 125.879 58.2017C126.156 58.3509 126.371 58.5781 126.525 58.8835C126.679 59.1866 126.756 59.5701 126.756 60.0341V63.5H125.918V60.0909C125.918 59.6624 125.807 59.3286 125.584 59.0895C125.361 58.848 125.056 58.7273 124.668 58.7273C124.4 58.7273 124.161 58.7853 123.95 58.9013C123.742 59.0173 123.578 59.1866 123.457 59.4091C123.336 59.6316 123.276 59.9015 123.276 60.2188Z" fill="black"/>
<path d="M130.574 63.6136C130.049 63.6136 129.595 63.4976 129.214 63.2656C128.835 63.0312 128.543 62.7045 128.337 62.2855C128.133 61.8641 128.032 61.3741 128.032 60.8153C128.032 60.2566 128.133 59.7642 128.337 59.3381C128.543 58.9096 128.829 58.5758 129.196 58.3366C129.566 58.0952 129.997 57.9744 130.489 57.9744C130.773 57.9744 131.054 58.0218 131.331 58.1165C131.608 58.2112 131.86 58.3651 132.087 58.5781C132.314 58.7888 132.495 59.0682 132.63 59.4162C132.765 59.7642 132.833 60.1927 132.833 60.7017V61.0568H128.628V60.3324H131.98C131.98 60.0246 131.919 59.75 131.796 59.5085C131.675 59.267 131.502 59.0765 131.277 58.9368C131.055 58.7971 130.792 58.7273 130.489 58.7273C130.155 58.7273 129.866 58.8101 129.623 58.9759C129.381 59.1392 129.195 59.3523 129.065 59.6151C128.935 59.8778 128.87 60.1596 128.87 60.4602V60.9432C128.87 61.3551 128.941 61.7043 129.083 61.9908C129.227 62.2749 129.427 62.4915 129.683 62.6406C129.939 62.7874 130.236 62.8608 130.574 62.8608C130.794 62.8608 130.993 62.83 131.171 62.7685C131.351 62.7045 131.506 62.6098 131.636 62.4844C131.766 62.3565 131.867 62.1979 131.938 62.0085L132.748 62.2358C132.662 62.5104 132.519 62.7519 132.318 62.9602C132.117 63.1662 131.868 63.3272 131.572 63.4432C131.276 63.5568 130.944 63.6136 130.574 63.6136Z" fill="black"/>
<path d="M137.971 59.267L137.218 59.4801C137.171 59.3546 137.101 59.2327 137.009 59.1143C136.919 58.9936 136.796 58.8942 136.64 58.8161C136.483 58.7379 136.283 58.6989 136.039 58.6989C135.706 58.6989 135.427 58.7758 135.205 58.9297C134.985 59.0812 134.875 59.2741 134.875 59.5085C134.875 59.7169 134.95 59.8814 135.102 60.0021C135.253 60.1229 135.49 60.2235 135.812 60.304L136.622 60.5028C137.11 60.6212 137.473 60.8023 137.712 61.0462C137.951 61.2876 138.071 61.599 138.071 61.9801C138.071 62.2926 137.981 62.572 137.801 62.8182C137.623 63.0644 137.375 63.2585 137.055 63.4006C136.735 63.5426 136.364 63.6136 135.94 63.6136C135.384 63.6136 134.923 63.4929 134.559 63.2514C134.194 63.0099 133.963 62.6572 133.866 62.1932L134.662 61.9943C134.737 62.2879 134.881 62.508 135.091 62.6548C135.304 62.8016 135.583 62.875 135.926 62.875C136.316 62.875 136.627 62.7921 136.856 62.6264C137.088 62.4583 137.204 62.2571 137.204 62.0227C137.204 61.8333 137.138 61.6747 137.005 61.5469C136.873 61.4167 136.669 61.3196 136.395 61.2557L135.485 61.0426C134.986 60.9242 134.619 60.7408 134.385 60.4922C134.153 60.2412 134.037 59.9276 134.037 59.5511C134.037 59.2434 134.123 58.9711 134.296 58.7344C134.471 58.4976 134.709 58.3118 135.01 58.1768C135.313 58.0419 135.656 57.9744 136.039 57.9744C136.579 57.9744 137.003 58.0928 137.311 58.3295C137.621 58.5663 137.841 58.8788 137.971 59.267Z" fill="black"/>
<path d="M143.381 63.5L141.719 58.0455H142.599L143.778 62.2216H143.835L145 58.0455H145.895L147.045 62.2074H147.102L148.281 58.0455H149.162L147.5 63.5H146.676L145.483 59.3097H145.398L144.204 63.5H143.381Z" fill="black"/>
<path d="M150.27 63.5V58.0455H151.108V63.5H150.27ZM150.696 57.1364C150.532 57.1364 150.392 57.0807 150.273 56.9695C150.157 56.8582 150.099 56.7244 150.099 56.5682C150.099 56.4119 150.157 56.2782 150.273 56.1669C150.392 56.0556 150.532 56 150.696 56C150.859 56 150.999 56.0556 151.115 56.1669C151.233 56.2782 151.292 56.4119 151.292 56.5682C151.292 56.7244 151.233 56.8582 151.115 56.9695C150.999 57.0807 150.859 57.1364 150.696 57.1364Z" fill="black"/>
<path d="M155.015 58.0455V58.7557H152.188V58.0455H155.015ZM153.012 56.7386H153.85V61.9375C153.85 62.1742 153.884 62.3518 153.953 62.4702C154.024 62.5862 154.114 62.6643 154.223 62.7045C154.334 62.7424 154.451 62.7614 154.575 62.7614C154.667 62.7614 154.743 62.7566 154.802 62.7472C154.861 62.7353 154.908 62.7259 154.944 62.7188L155.114 63.4716C155.058 63.4929 154.978 63.5142 154.876 63.5355C154.775 63.5592 154.646 63.571 154.489 63.571C154.253 63.571 154.021 63.5201 153.793 63.4183C153.568 63.3165 153.381 63.1615 153.232 62.9531C153.085 62.7448 153.012 62.482 153.012 62.1648V56.7386Z" fill="black"/>
<path d="M157.231 60.2188V63.5H156.393V56.2273H157.231V58.8977H157.302C157.43 58.616 157.621 58.3923 157.877 58.2266C158.135 58.0585 158.478 57.9744 158.907 57.9744C159.279 57.9744 159.604 58.049 159.884 58.1982C160.163 58.3449 160.38 58.571 160.533 58.8764C160.69 59.1795 160.768 59.5653 160.768 60.0341V63.5H159.93V60.0909C159.93 59.6577 159.817 59.3227 159.592 59.0859C159.37 58.8468 159.061 58.7273 158.665 58.7273C158.391 58.7273 158.145 58.7853 157.927 58.9013C157.711 59.0173 157.541 59.1866 157.415 59.4091C157.292 59.6316 157.231 59.9015 157.231 60.2188Z" fill="black"/>
<path d="M167.4 63.6136C166.875 63.6136 166.421 63.4976 166.04 63.2656C165.662 63.0312 165.369 62.7045 165.163 62.2855C164.96 61.8641 164.858 61.3741 164.858 60.8153C164.858 60.2566 164.96 59.7642 165.163 59.3381C165.369 58.9096 165.656 58.5758 166.023 58.3366C166.392 58.0952 166.823 57.9744 167.315 57.9744C167.599 57.9744 167.88 58.0218 168.157 58.1165C168.434 58.2112 168.686 58.3651 168.913 58.5781C169.14 58.7888 169.322 59.0682 169.457 59.4162C169.591 59.7642 169.659 60.1927 169.659 60.7017V61.0568H165.454V60.3324H168.807C168.807 60.0246 168.745 59.75 168.622 59.5085C168.501 59.267 168.328 59.0765 168.104 58.9368C167.881 58.7971 167.618 58.7273 167.315 58.7273C166.981 58.7273 166.693 58.8101 166.449 58.9759C166.207 59.1392 166.021 59.3523 165.891 59.6151C165.761 59.8778 165.696 60.1596 165.696 60.4602V60.9432C165.696 61.3551 165.767 61.7043 165.909 61.9908C166.053 62.2749 166.253 62.4915 166.509 62.6406C166.765 62.7874 167.062 62.8608 167.4 62.8608C167.621 62.8608 167.819 62.83 167.997 62.7685C168.177 62.7045 168.332 62.6098 168.462 62.4844C168.592 62.3565 168.693 62.1979 168.764 62.0085L169.574 62.2358C169.488 62.5104 169.345 62.7519 169.144 62.9602C168.943 63.1662 168.694 63.3272 168.398 63.4432C168.102 63.5568 167.77 63.6136 167.4 63.6136Z" fill="black"/>
<path d="M172.539 63.6278C172.193 63.6278 171.88 63.5627 171.598 63.4325C171.316 63.3 171.092 63.1094 170.927 62.8608C170.761 62.6098 170.678 62.3068 170.678 61.9517C170.678 61.6392 170.74 61.3859 170.863 61.1918C170.986 60.9953 171.15 60.8414 171.356 60.7301C171.562 60.6188 171.79 60.536 172.038 60.4815C172.289 60.4247 172.541 60.3797 172.795 60.3466C173.126 60.304 173.395 60.272 173.601 60.2507C173.809 60.227 173.961 60.188 174.055 60.1335C174.152 60.0791 174.201 59.9844 174.201 59.8494V59.821C174.201 59.4706 174.105 59.1984 173.913 59.0043C173.724 58.8101 173.436 58.7131 173.05 58.7131C172.65 58.7131 172.336 58.8007 172.109 58.9759C171.882 59.151 171.722 59.3381 171.63 59.5369L170.834 59.2528C170.976 58.9214 171.166 58.6634 171.403 58.4787C171.642 58.2917 171.902 58.1615 172.184 58.0881C172.468 58.0123 172.747 57.9744 173.022 57.9744C173.197 57.9744 173.398 57.9957 173.626 58.0384C173.855 58.0786 174.077 58.1626 174.29 58.2905C174.505 58.4183 174.684 58.6113 174.826 58.8693C174.968 59.1274 175.039 59.473 175.039 59.9062V63.5H174.201V62.7614H174.158C174.101 62.8797 174.007 63.0064 173.874 63.1413C173.742 63.2763 173.565 63.3911 173.345 63.4858C173.125 63.5805 172.856 63.6278 172.539 63.6278ZM172.667 62.875C172.998 62.875 173.278 62.8099 173.505 62.6797C173.734 62.5495 173.907 62.3814 174.023 62.1754C174.142 61.9695 174.201 61.7528 174.201 61.5256V60.7585C174.165 60.8011 174.087 60.8402 173.966 60.8757C173.848 60.9089 173.711 60.9384 173.555 60.9645C173.401 60.9882 173.25 61.0095 173.104 61.0284C172.959 61.045 172.842 61.0592 172.752 61.071C172.534 61.0994 172.331 61.1456 172.141 61.2095C171.954 61.2711 171.803 61.3646 171.687 61.4901C171.573 61.6132 171.516 61.7812 171.516 61.9943C171.516 62.2855 171.624 62.5057 171.839 62.6548C172.057 62.8016 172.333 62.875 172.667 62.875Z" fill="black"/>
<path d="M180.432 59.267L179.679 59.4801C179.632 59.3546 179.562 59.2327 179.47 59.1143C179.38 58.9936 179.257 58.8942 179.101 58.8161C178.944 58.7379 178.744 58.6989 178.5 58.6989C178.167 58.6989 177.888 58.7758 177.666 58.9297C177.446 59.0812 177.336 59.2741 177.336 59.5085C177.336 59.7169 177.411 59.8814 177.563 60.0021C177.714 60.1229 177.951 60.2235 178.273 60.304L179.083 60.5028C179.57 60.6212 179.934 60.8023 180.173 61.0462C180.412 61.2876 180.532 61.599 180.532 61.9801C180.532 62.2926 180.442 62.572 180.262 62.8182C180.084 63.0644 179.836 63.2585 179.516 63.4006C179.196 63.5426 178.825 63.6136 178.401 63.6136C177.845 63.6136 177.384 63.4929 177.02 63.2514C176.655 63.0099 176.424 62.6572 176.327 62.1932L177.123 61.9943C177.198 62.2879 177.342 62.508 177.552 62.6548C177.765 62.8016 178.043 62.875 178.387 62.875C178.777 62.875 179.087 62.7921 179.317 62.6264C179.549 62.4583 179.665 62.2571 179.665 62.0227C179.665 61.8333 179.599 61.6747 179.466 61.5469C179.334 61.4167 179.13 61.3196 178.855 61.2557L177.946 61.0426C177.447 60.9242 177.08 60.7408 176.846 60.4922C176.614 60.2412 176.498 59.9276 176.498 59.5511C176.498 59.2434 176.584 58.9711 176.757 58.7344C176.932 58.4976 177.17 58.3118 177.471 58.1768C177.774 58.0419 178.117 57.9744 178.5 57.9744C179.04 57.9744 179.464 58.0928 179.772 58.3295C180.082 58.5663 180.302 58.8788 180.432 59.267Z" fill="black"/>
<path d="M184.08 63.6136C183.555 63.6136 183.101 63.4976 182.72 63.2656C182.341 63.0312 182.049 62.7045 181.843 62.2855C181.639 61.8641 181.537 61.3741 181.537 60.8153C181.537 60.2566 181.639 59.7642 181.843 59.3381C182.049 58.9096 182.335 58.5758 182.702 58.3366C183.072 58.0952 183.502 57.9744 183.995 57.9744C184.279 57.9744 184.559 58.0218 184.836 58.1165C185.113 58.2112 185.366 58.3651 185.593 58.5781C185.82 58.7888 186.001 59.0682 186.136 59.4162C186.271 59.7642 186.339 60.1927 186.339 60.7017V61.0568H182.134V60.3324H185.486C185.486 60.0246 185.425 59.75 185.302 59.5085C185.181 59.267 185.008 59.0765 184.783 58.9368C184.561 58.7971 184.298 58.7273 183.995 58.7273C183.661 58.7273 183.372 58.8101 183.128 58.9759C182.887 59.1392 182.701 59.3523 182.571 59.6151C182.441 59.8778 182.376 60.1596 182.376 60.4602V60.9432C182.376 61.3551 182.447 61.7043 182.589 61.9908C182.733 62.2749 182.933 62.4915 183.189 62.6406C183.444 62.7874 183.742 62.8608 184.08 62.8608C184.3 62.8608 184.499 62.83 184.677 62.7685C184.857 62.7045 185.012 62.6098 185.142 62.4844C185.272 62.3565 185.373 62.1979 185.444 62.0085L186.253 62.2358C186.168 62.5104 186.025 62.7519 185.824 62.9602C185.622 63.1662 185.374 63.3272 185.078 63.4432C184.782 63.5568 184.449 63.6136 184.08 63.6136Z" fill="black"/>
<path d="M188.338 56.2273V58.7273H187.557V56.2273H188.338ZM190.156 56.2273V58.7273H189.375V56.2273H190.156Z" fill="black"/>
<path d="M38.776 47L27.496 16.952H27.304C27.368 17.592 27.416 18.408 27.448 19.4C27.512 20.392 27.56 21.48 27.592 22.664C27.624 23.816 27.64 25 27.64 26.216V47H23.656V12.728H30.04L40.6 40.808H40.792L51.544 12.728H57.88V47H53.608V25.928C53.608 24.808 53.624 23.704 53.656 22.616C53.688 21.496 53.736 20.456 53.8 19.496C53.864 18.504 53.912 17.672 53.944 17H53.752L42.328 47H38.776Z" fill="black"/>
<path d="M144.112 29.528C144.112 33.368 143.392 36.584 141.952 39.176C140.544 41.768 138.512 43.72 135.856 45.032C133.2 46.344 129.984 47 126.208 47H116.656V12.728H127.216C130.672 12.728 133.664 13.368 136.192 14.648C138.72 15.928 140.672 17.816 142.048 20.312C143.424 22.776 144.112 25.848 144.112 29.528ZM139.552 29.672C139.552 26.632 139.04 24.136 138.016 22.184C137.024 20.232 135.552 18.792 133.6 17.864C131.68 16.904 129.344 16.424 126.592 16.424H120.976V43.304H125.632C130.272 43.304 133.744 42.168 136.048 39.896C138.384 37.592 139.552 34.184 139.552 29.672ZM167.895 39.896C167.895 41.56 167.479 42.952 166.647 44.072C165.815 45.192 164.631 46.04 163.095 46.616C161.559 47.192 159.735 47.48 157.623 47.48C155.831 47.48 154.279 47.336 152.967 47.048C151.687 46.76 150.551 46.36 149.559 45.848V42.008C150.583 42.52 151.815 43 153.255 43.448C154.727 43.864 156.215 44.072 157.719 44.072C159.863 44.072 161.415 43.736 162.375 43.064C163.335 42.36 163.815 41.432 163.815 40.28C163.815 39.64 163.639 39.064 163.287 38.552C162.935 38.04 162.295 37.528 161.367 37.016C160.471 36.504 159.175 35.928 157.479 35.288C155.815 34.648 154.391 34.008 153.207 33.368C152.023 32.728 151.111 31.96 150.471 31.064C149.831 30.168 149.511 29.016 149.511 27.608C149.511 25.432 150.391 23.752 152.151 22.568C153.943 21.384 156.279 20.792 159.159 20.792C160.727 20.792 162.183 20.952 163.527 21.272C164.903 21.56 166.183 21.976 167.367 22.52L165.927 25.88C165.223 25.56 164.471 25.288 163.671 25.064C162.903 24.808 162.119 24.616 161.319 24.488C160.519 24.328 159.703 24.248 158.871 24.248C157.143 24.248 155.815 24.536 154.887 25.112C153.991 25.656 153.543 26.408 153.543 27.368C153.543 28.072 153.751 28.68 154.167 29.192C154.583 29.672 155.271 30.152 156.231 30.632C157.223 31.08 158.535 31.624 160.167 32.264C161.799 32.872 163.191 33.496 164.343 34.136C165.495 34.776 166.375 35.56 166.983 36.488C167.591 37.384 167.895 38.52 167.895 39.896Z" fill="black"/>
<defs>
<clipPath id="clip0_1_28">
<rect width="20" height="20" fill="white" transform="translate(92 10)"/>
</clipPath>
<clipPath id="clip1_1_28">
<rect width="20" height="20" fill="white" transform="translate(77 30)"/>
</clipPath>
</defs>
</svg>
